<?xml version="1.0" standalone="no"?>
<!DOCTYPE svg PUBLIC "-//W3C//DTD SVG 1.1//EN" "http://www.w3.org/Graphics/SVG/1.1/DTD/svg11.dtd" >
<svg xmlns="http://www.w3.org/2000/svg">
<metadata>Generated by IcoMoon</metadata>
<defs>
<font id="icomoon" horiz-adv-x="1024">
<font-face units-per-em="1024" ascent="960" descent="-64" />
<missing-glyph horiz-adv-x="1024" />
<glyph unicode="&#x20;" horiz-adv-x="512" d="" />
<glyph unicode="&#xe900;" glyph-name="font-size" d="M709.079 170.667c0.053 0 0.115 0 0.177 0 22.716 0 41.131 18.415 41.131 41.131 0 5.47-1.068 10.691-3.006 15.465l0.099-0.275-181.333 461.227c-8.657 21.903-29.645 37.117-54.187 37.117s-45.53-15.213-54.049-36.723l-0.137-0.393-181.333-461.227c-1.789-4.452-2.827-9.614-2.827-15.019 0-22.784 18.449-41.259 41.223-41.301h0.004c17.621 0.138 32.641 11.12 38.728 26.595l0.099 0.285 37.547 101.12h240.64l38.4-101.547c6.371-15.54 21.323-26.315 38.809-26.453h0.017zM423.639 384.001l88.32 235.52 88.32-235.52z" />
<glyph unicode="&#xe901;" glyph-name="chat" d="M261.077 132.864l-134.4-33.835c-2.52-0.573-5.414-0.901-8.384-0.901-0.217 0-0.434 0.002-0.651 0.005h0.033c-0.474-0.036-1.028-0.056-1.585-0.056-6.492 0-12.334 2.777-16.405 7.208l-0.015 0.016c-2.409 3.497-3.848 7.825-3.848 12.488 0 2.287 0.346 4.494 0.989 6.57l-0.042-0.157 38.4 132.267c-31.449 51.786-50.063 114.388-50.063 181.338 0 22.412 2.086 44.336 6.074 65.59l-0.342-2.192c16.357 86.889 62.755 160.848 127.777 212.303l0.735 0.561c59.328 46.833 135.133 75.191 217.554 75.392h0.046c0.254 0.001 0.554 0.001 0.855 0.001 95.969 0 182.937-38.541 246.269-100.99l-0.041 0.040c19.979-19.636 37.576-41.588 52.385-65.451l0.863-1.493c35.059-9.168 65.651-24.678 91.97-45.377l-0.535 0.406c62.513-45.388 102.696-118.232 102.696-200.461 0-45.301-12.196-87.754-33.483-124.254l0.632 1.174 23.424-93.227c0.046-0.591 0.072-1.281 0.072-1.976 0-6.845-2.551-13.095-6.753-17.85l0.025 0.029c-0.279-0.269-0.532-0.562-0.755-0.877l-0.013-0.019c-4.374-4.319-10.388-6.987-17.025-6.987-0.841 0-1.672 0.043-2.491 0.126l0.103-0.009c-0.378-0.047-0.815-0.073-1.259-0.073s-0.881 0.027-1.311 0.078l0.052-0.005-90.155 21.973c-33.938-20.476-74.92-32.59-118.731-32.59-3.44 0-6.862 0.075-10.266 0.222l0.485-0.017c-0.044 0-0.095 0-0.147 0-22.968 0-45.231 3.020-66.413 8.685l1.792-0.408c-49.331-28.079-108.383-44.631-171.302-44.631-0.332 0-0.663 0-0.995 0.001h0.051c-64.781 0.058-125.444 17.638-177.52 48.256l1.648-0.896zM674.432 164.181c44.139 0.401 85.138 13.502 119.618 35.817l-0.877-0.532 56.917-12.416c0.896 0 2.816-0.725 5.419-1.28l2.176-0.512c3.705-1.096 8.427-2.165 13.24-2.968l0.755-0.104c-2.066 13.571-4.936 25.53-8.693 37.088l0.459-1.632-1.067 4.267c-0.363 0.989-0.73 2.245-1.023 3.529l-0.043 0.225-8.832 32.768c21.11 32.697 33.657 72.644 33.657 115.522 0 68.659-32.171 129.804-82.261 169.183l-0.463 0.351c-11.325 8.826-24.123 16.789-37.727 23.342l-1.27 0.551c12.555-30.741 21.063-66.344 23.783-103.555l0.067-1.149c0.565-7.47 0.887-16.18 0.887-24.964 0-80.641-27.127-154.945-72.753-214.287l0.613 0.83c-17.022-22.276-35.805-41.776-56.577-58.956l-0.596-0.479c4.907-0.427 9.941-0.64 14.592-0.64zM556.757 433.408c0-0.025 0-0.055 0-0.085 0-25.372 20.544-45.946 45.905-45.995h0.005c25.403 0.073 45.97 20.67 45.995 46.078v0.002c-0.024 25.41-20.592 46.007-45.988 46.080h-0.007c-25.365-0.049-45.909-20.622-45.909-45.995 0-0.030 0-0.060 0-0.090v0.005zM391.168 433.408c0.073-25.42 20.66-46.007 46.073-46.080h0.007c25.347 0.169 45.837 20.72 45.909 46.073v0.007c0 0.025 0 0.055 0 0.085 0 25.372-20.544 45.946-45.905 45.995h-0.005c-25.42-0.073-46.007-20.66-46.080-46.073v-0.007zM225.664 433.408c0.024-25.41 20.592-46.007 45.988-46.080h0.007c25.347 0.169 45.837 20.72 45.909 46.073v0.007c0 0.025 0 0.055 0 0.085 0 25.372-20.544 45.946-45.905 45.995h-0.005c-25.403-0.073-45.97-20.67-45.995-46.078v-0.002z" />
<glyph unicode="&#xe902;" glyph-name="volume-down" d="M789.333 448c0 75.52-43.52 140.373-106.667 171.947v-343.467c63.147 31.147 106.667 96 106.667 171.52zM213.333 533.333v-170.667c0-23.467 19.2-42.667 42.667-42.667h128l140.373-140.373c26.88-26.88 72.96-7.68 72.96 30.293v476.587c0 37.973-46.080 57.173-72.96 30.293l-140.373-140.8h-128c-23.467 0-42.667-19.2-42.667-42.667z" />
<glyph unicode="&#xe903;" glyph-name="play-arrow" d="M341.333 669.013v-442.027c0-33.707 37.12-54.187 65.707-35.84l347.307 221.013c26.453 16.64 26.453 55.040 0 72.107l-347.307 220.587c-28.587 18.347-65.707-2.133-65.707-35.84z" />
<glyph unicode="&#xe904;" glyph-name="arrow-more" d="M538.15 427.771l-241.359-241.359c-16.662-16.662-43.677-16.662-60.34 0s-16.662 43.677 0 60.34l241.359 241.359c16.662 16.662 43.677 16.662 60.34 0s16.662-43.677 0-60.34zM794.15 427.771l-241.359-241.359c-16.662-16.662-43.677-16.662-60.34 0s-16.662 43.677 0 60.34l241.359 241.359c16.662 16.662 43.677 16.662 60.34 0s16.662-43.677 0-60.34zM477.819 427.823l-241.359 241.359c-16.662 16.662-16.662 43.677 0 60.34s43.677 16.662 60.34 0l241.359-241.359c16.662-16.662 16.662-43.677 0-60.34s-43.677-16.662-60.34 0zM733.819 427.823l-241.359 241.359c-16.662 16.662-16.662 43.677 0 60.34s43.677 16.662 60.34 0l241.359-241.359c16.662-16.662 16.662-43.677 0-60.34s-43.677-16.662-60.34 0z" />
<glyph unicode="&#xe905;" glyph-name="copy-link" d="M522.325 217.003l-110.251 110.251c-28.157 28.242-45.567 67.213-45.567 110.251s17.41 82.008 45.571 110.254l1.489 1.489c5.3 5.269 12.606 8.525 20.672 8.525 16.196 0 29.325-13.129 29.325-29.325 0-8.13-3.308-15.487-8.652-20.799l-0.001-0.001c-0.512-0.512-0.981-0.768-1.493-1.237-17.532-17.682-28.366-42.029-28.366-68.907s10.834-51.225 28.373-68.913l110.244-110.244c17.677-17.894 42.214-28.977 69.34-28.977 53.821 0 97.451 43.63 97.451 97.451 0 27.126-11.083 51.663-28.967 69.33l-0.010 0.010h0.256c-4.537 5.102-7.309 11.862-7.309 19.269 0 8.041 3.267 15.32 8.545 20.581l0.001 0.001c5.316 5.338 12.672 8.641 20.8 8.641s15.484-3.303 20.799-8.64l0.001-0.001c0.886-0.906 1.712-1.88 2.465-2.912l0.052-0.075c25.644-27.701 41.374-64.903 41.374-105.778 0-86.103-69.801-155.904-155.904-155.904-43.050 0-82.025 17.449-110.238 45.661v0zM569.259 346.667c-5.292 5.29-8.566 12.598-8.566 20.672s3.274 15.382 8.566 20.672l1.493 1.493c17.532 17.682 28.366 42.029 28.366 68.907s-10.834 51.225-28.373 68.913l-110.244 110.244c-17.677 17.894-42.214 28.977-69.34 28.977-53.821 0-97.451-43.63-97.451-97.451 0-27.126 11.083-51.663 28.967-69.33l0.010-0.010h-0.256c4.015-4.979 6.445-11.382 6.445-18.353 0-16.212-13.143-29.355-29.355-29.355-7.62 0-14.562 2.903-19.78 7.664l0.023-0.021c-0.844 0.965-1.67 2.022-2.438 3.123l-0.079 0.12c-25.364 27.635-40.909 64.639-40.909 105.272 0 86.103 69.801 155.904 155.904 155.904 42.82 0 81.608-17.263 109.784-45.208l110.241-110.241c28.157-28.242 45.567-67.213 45.567-110.251s-17.41-82.008-45.571-110.254l-1.489-1.489c-5.286-5.273-12.582-8.533-20.64-8.533-0.034 0-0.068 0-0.102 0h0.005c-0.159-0.003-0.347-0.005-0.536-0.005-7.987 0-15.212 3.266-20.411 8.535l-0.003 0.003z" />
<glyph unicode="&#xe906;" glyph-name="red-eye" d="M512 768c-213.333 0-395.52-132.693-469.333-320 73.813-187.307 256-320 469.333-320s395.52 132.693 469.333 320c-73.813 187.307-256 320-469.333 320zM512 234.667c-117.76 0-213.333 95.573-213.333 213.333s95.573 213.333 213.333 213.333 213.333-95.573 213.333-213.333-95.573-213.333-213.333-213.333zM512 576c-70.827 0-128-57.173-128-128s57.173-128 128-128 128 57.173 128 128-57.173 128-128 128z" />
<glyph unicode="&#xe907;" glyph-name="arrow-forward" d="M213.333 405.333h476.587l-208.213-208.213c-16.64-16.64-16.64-43.947 0-60.587s43.52-16.64 60.16 0l281.173 281.173c16.64 16.64 16.64 43.52 0 60.16l-280.747 281.6c-16.64 16.64-43.52 16.64-60.16 0s-16.64-43.52 0-60.16l207.787-208.64h-476.587c-23.467 0-42.667-19.2-42.667-42.667s19.2-42.667 42.667-42.667z" />
<glyph unicode="&#xe908;" glyph-name="favorite" d="M569.6 101.12c-32.427-29.44-82.347-29.44-114.773 0.427l-4.693 4.267c-224 202.667-370.347 335.36-364.8 500.907 2.56 72.533 39.68 142.080 99.84 183.040 112.64 76.8 251.733 40.96 326.827-46.933 75.093 87.893 214.187 124.16 326.827 46.933 60.16-40.96 97.28-110.507 99.84-183.040 5.973-165.547-140.8-298.24-364.8-501.76l-4.267-3.84z" />
<glyph unicode="&#xe909;" glyph-name="volume-off" d="M154.88 805.12c-16.64-16.64-16.64-43.52 0-60.16l156.16-156.16-12.373-12.8h-128c-23.467 0-42.667-19.2-42.667-42.667v-170.667c0-23.467 19.2-42.667 42.667-42.667h128l140.373-140.373c26.88-26.88 72.96-7.68 72.96 30.293v177.92l178.347-178.347c-20.907-15.787-43.52-29.013-68.267-38.827-15.36-6.4-24.747-22.613-24.747-39.253 0-30.72 31.147-50.347 59.307-38.827 34.133 14.080 66.133 32.853 94.72 55.893l57.173-57.173c16.64-16.64 43.52-16.64 60.16 0s16.64 43.52 0 60.16l-653.227 653.653c-16.64 16.64-43.52 16.64-60.587 0zM810.667 448c0-34.987-6.4-68.693-17.493-99.84l65.28-65.28c23.893 49.92 37.547 105.813 37.547 165.12 0 163.413-102.4 303.36-246.613 358.4-25.173 9.813-52.053-9.813-52.053-36.693v-8.107c0-16.213 10.667-30.293 26.027-36.267 109.653-44.373 187.307-151.893 187.307-277.333zM439.040 716.373l-7.253-7.253 80.213-80.213v57.6c0 37.973-46.080 56.747-72.96 29.867zM704 448c0 75.52-43.52 140.373-106.667 171.947v-76.373l105.813-105.813c0.427 3.413 0.853 6.827 0.853 10.24z" />
<glyph unicode="&#xe90a;" glyph-name="call" d="M820.48 308.907l-108.373 12.373c-26.027 2.987-51.627-5.973-69.973-24.32l-78.507-78.507c-120.747 61.44-219.733 160-281.173 281.173l78.933 78.933c18.347 18.347 27.307 43.947 24.32 69.973l-12.373 107.52c-5.12 43.093-41.387 75.52-84.907 75.52h-73.813c-48.213 0-88.32-40.107-85.333-88.32 22.613-364.373 314.027-655.36 677.973-677.973 48.213-2.987 88.32 37.12 88.32 85.333v73.813c0.427 43.093-32 79.36-75.093 84.48z" />
<glyph unicode="&#xe90b;" glyph-name="cancel" d="M512 874.667c-235.947 0-426.667-190.72-426.667-426.667s190.72-426.667 426.667-426.667 426.667 190.72 426.667 426.667-190.72 426.667-426.667 426.667zM695.467 264.533c-16.64-16.64-43.52-16.64-60.16 0l-123.307 123.307-123.307-123.307c-16.64-16.64-43.52-16.64-60.16 0s-16.64 43.52 0 60.16l123.307 123.307-123.307 123.307c-16.64 16.64-16.64 43.52 0 60.16s43.52 16.64 60.16 0l123.307-123.307 123.307 123.307c16.64 16.64 43.52 16.64 60.16 0s16.64-43.52 0-60.16l-123.307-123.307 123.307-123.307c16.213-16.213 16.213-43.52 0-60.16z" />
<glyph unicode="&#xe90c;" glyph-name="volume-up" d="M128 533.333v-170.667c0-23.467 19.2-42.667 42.667-42.667h128l140.373-140.373c26.88-26.88 72.96-7.68 72.96 30.293v476.587c0 37.973-46.080 57.173-72.96 30.293l-140.373-140.8h-128c-23.467 0-42.667-19.2-42.667-42.667zM704 448c0 75.52-43.52 140.373-106.667 171.947v-343.467c63.147 31.147 106.667 96 106.667 171.52zM597.333 770.133v-8.533c0-16.213 10.667-30.293 25.6-36.267 110.080-43.947 187.733-151.893 187.733-277.333s-77.653-233.387-187.733-277.333c-15.36-5.973-25.6-20.053-25.6-36.267v-8.533c0-26.88 26.88-45.653 51.627-36.267 144.64 55.040 247.040 194.56 247.040 358.4s-102.4 303.36-247.040 358.4c-24.747 9.813-51.627-9.387-51.627-36.267z" />
<glyph unicode="&#xe90d;" glyph-name="close" d="M780.8 716.373c-16.64 16.64-43.52 16.64-60.16 0l-208.64-208.213-208.64 208.64c-16.64 16.64-43.52 16.64-60.16 0s-16.64-43.52 0-60.16l208.64-208.64-208.64-208.64c-16.64-16.64-16.64-43.52 0-60.16s43.52-16.64 60.16 0l208.64 208.64 208.64-208.64c16.64-16.64 43.52-16.64 60.16 0s16.64 43.52 0 60.16l-208.64 208.64 208.64 208.64c16.213 16.213 16.213 43.52 0 59.733z" />
<glyph unicode="&#xe90e;" glyph-name="share" d="M341.333 21.333h-85.333c-47.128 0-85.333 38.205-85.333 85.333v0 384c0 47.128 38.205 85.333 85.333 85.333v0h85.333v-85.333h-85.333v-384h512v384h-85.333v85.333h85.333c47.070-0.145 85.188-38.264 85.333-85.319v-384.014c-0.169-47.060-38.273-85.164-85.317-85.333h-0.016zM469.333 384v327.339l-67.84-67.584-60.16 60.245 170.667 170.667 170.667-170.667-60.331-60.331-67.84 67.584v-327.339z" />
<glyph unicode="&#xe90f;" glyph-name="text-rotate-vertical" d="M924.416 234.667l-24.576 59.733h-135.851l-24.32-59.733h-57.003l128.981 298.667h40.747l128.853-298.667zM781.312 343.424h101.419l-50.645 136.533zM533.845 234.667l-45.269 110.933h-252.075l-45.483-110.933h-105.685l239.317 554.667h75.819l239.317-554.667zM268.075 436.352h188.843l-94.421 253.312z" />
<glyph unicode="&#xe910;" glyph-name="favorite-border" d="M838.827 789.76c-112.64 76.8-251.733 40.96-326.827-46.933-75.093 87.893-214.187 124.16-326.827 46.933-59.733-40.96-97.28-110.080-99.84-183.040-5.973-165.547 140.8-298.24 364.8-501.76l4.267-3.84c32.427-29.44 82.347-29.44 114.773 0.427l4.693 4.267c224 203.093 370.347 335.787 364.8 501.333-2.56 72.533-40.107 141.653-99.84 182.613zM516.267 168.533l-4.267-4.267-4.267 4.267c-203.093 183.893-337.067 305.493-337.067 428.8 0 85.333 64 149.333 149.333 149.333 65.707 0 129.707-42.24 152.32-100.693h79.787c22.187 58.453 86.187 100.693 151.893 100.693 85.333 0 149.333-64 149.333-149.333 0-123.307-133.973-244.907-337.067-428.8z" />
<glyph unicode="&#xe911;" glyph-name="thumb-up" d="M559.787 872.107l-236.373-236.373c-15.787-15.787-24.747-37.547-24.747-60.16v-426.24c0-46.933 38.4-85.333 85.333-85.333h384c34.133 0 64.853 20.48 78.507 51.627l139.093 324.693c35.84 84.48-26.027 178.347-117.76 178.347h-241.067l40.533 195.413c4.267 21.333-2.133 43.093-17.493 58.453-25.173 24.747-65.28 24.747-90.027-0.427zM128 64c46.933 0 85.333 38.4 85.333 85.333v341.333c0 46.933-38.4 85.333-85.333 85.333s-85.333-38.4-85.333-85.333v-341.333c0-46.933 38.4-85.333 85.333-85.333z" />
<glyph unicode="&#xe912;" glyph-name="phone" d="M661.333 917.333h-341.333c-58.88 0-106.667-47.787-106.667-106.667v-725.333c0-58.88 47.787-106.667 106.667-106.667h341.333c58.88 0 106.667 47.787 106.667 106.667v725.333c0 58.88-47.787 106.667-106.667 106.667zM490.667 21.333c-35.413 0-64 28.587-64 64s28.587 64 64 64 64-28.587 64-64-28.587-64-64-64zM682.667 192h-384v597.333h384v-597.333z" />
<glyph unicode="&#xe913;" glyph-name="audio" d="M848.043 259.712c0-81.014-65.674-146.688-146.688-146.688s-146.688 65.674-146.688 146.688c0 81.014 65.674 146.688 146.688 146.688s146.688-65.674 146.688-146.688zM387.243 175.872c0-81.014-65.674-146.688-146.688-146.688s-146.688 65.674-146.688 146.688c0 81.014 65.674 146.688 146.688 146.688s146.688-65.674 146.688-146.688zM344.747 742.443c23.564 0 42.667-19.103 42.667-42.667v-512c0-23.564-19.103-42.667-42.667-42.667s-42.667 19.103-42.667 42.667v512c0 23.564 19.103 42.667 42.667 42.667zM806.4 827.776c23.564 0 42.667-19.103 42.667-42.667v-520.533c0-23.564-19.103-42.667-42.667-42.667s-42.667 19.103-42.667 42.667v520.533c0 23.564 19.103 42.667 42.667 42.667zM331.743 741.098l470.934 87.073 43.358-157.52-544.044-107.943z" />
<glyph unicode="&#xe914;" glyph-name="arrow-back" d="M810.667 490.667h-476.587l208.213 208.213c16.64 16.64 16.64 43.947 0 60.587s-43.52 16.64-60.16 0l-281.173-281.173c-16.64-16.64-16.64-43.52 0-60.16l281.173-281.173c16.64-16.64 43.52-16.64 60.16 0s16.64 43.52 0 60.16l-208.213 208.213h476.587c23.467 0 42.667 19.2 42.667 42.667s-19.2 42.667-42.667 42.667z" />
<glyph unicode="&#xe915;" glyph-name="expand-less" d="M346.453 332.373l165.547 165.547 165.547-165.547c16.64-16.64 43.52-16.64 60.16 0s16.64 43.52 0 60.16l-195.84 195.84c-16.64 16.64-43.52 16.64-60.16 0l-195.84-195.84c-16.64-16.64-16.64-43.52 0-60.16 16.64-16.213 43.947-16.64 60.587 0z" />
<glyph unicode="&#xe916;" glyph-name="pause-circle" d="M512 874.667c-235.52 0-426.667-191.147-426.667-426.667s191.147-426.667 426.667-426.667 426.667 191.147 426.667 426.667-191.147 426.667-426.667 426.667zM426.667 277.333c-23.467 0-42.667 19.2-42.667 42.667v256c0 23.467 19.2 42.667 42.667 42.667s42.667-19.2 42.667-42.667v-256c0-23.467-19.2-42.667-42.667-42.667zM597.333 277.333c-23.467 0-42.667 19.2-42.667 42.667v256c0 23.467 19.2 42.667 42.667 42.667s42.667-19.2 42.667-42.667v-256c0-23.467-19.2-42.667-42.667-42.667z" />
<glyph unicode="&#xe917;" glyph-name="more-horiz" d="M256 533.333c-46.933 0-85.333-38.4-85.333-85.333s38.4-85.333 85.333-85.333 85.333 38.4 85.333 85.333-38.4 85.333-85.333 85.333zM768 533.333c-46.933 0-85.333-38.4-85.333-85.333s38.4-85.333 85.333-85.333 85.333 38.4 85.333 85.333-38.4 85.333-85.333 85.333zM512 533.333c-46.933 0-85.333-38.4-85.333-85.333s38.4-85.333 85.333-85.333 85.333 38.4 85.333 85.333-38.4 85.333-85.333 85.333z" />
<glyph unicode="&#xe918;" glyph-name="expand-more" d="M677.547 563.627l-165.547-165.547-165.547 165.547c-16.64 16.64-43.52 16.64-60.16 0s-16.64-43.52 0-60.16l195.84-195.84c16.64-16.64 43.52-16.64 60.16 0l195.84 195.84c16.64 16.64 16.64 43.52 0 60.16-16.64 16.213-43.947 16.64-60.587 0z" />
<glyph unicode="&#xe919;" glyph-name="fullscreen" d="M256 362.667c-23.467 0-42.667-19.2-42.667-42.667v-128c0-23.467 19.2-42.667 42.667-42.667h128c23.467 0 42.667 19.2 42.667 42.667s-19.2 42.667-42.667 42.667h-85.333v85.333c0 23.467-19.2 42.667-42.667 42.667zM256 533.333c23.467 0 42.667 19.2 42.667 42.667v85.333h85.333c23.467 0 42.667 19.2 42.667 42.667s-19.2 42.667-42.667 42.667h-128c-23.467 0-42.667-19.2-42.667-42.667v-128c0-23.467 19.2-42.667 42.667-42.667zM725.333 234.667h-85.333c-23.467 0-42.667-19.2-42.667-42.667s19.2-42.667 42.667-42.667h128c23.467 0 42.667 19.2 42.667 42.667v128c0 23.467-19.2 42.667-42.667 42.667s-42.667-19.2-42.667-42.667v-85.333zM597.333 704c0-23.467 19.2-42.667 42.667-42.667h85.333v-85.333c0-23.467 19.2-42.667 42.667-42.667s42.667 19.2 42.667 42.667v128c0 23.467-19.2 42.667-42.667 42.667h-128c-23.467 0-42.667-19.2-42.667-42.667z" />
<glyph unicode="&#xe91a;" glyph-name="play-circle-outline" d="M426.667 256l256 192-256 192zM512 874.667c-235.52 0-426.667-191.147-426.667-426.667s191.147-426.667 426.667-426.667 426.667 191.147 426.667 426.667-191.147 426.667-426.667 426.667zM512 106.667c-188.16 0-341.333 153.173-341.333 341.333s153.173 341.333 341.333 341.333 341.333-153.173 341.333-341.333-153.173-341.333-341.333-341.333z" />
<glyph unicode="&#xe91b;" glyph-name="play-arrow-filled" d="M512 874.667c-235.52 0-426.667-191.147-426.667-426.667s191.147-426.667 426.667-426.667 426.667 191.147 426.667 426.667-191.147 426.667-426.667 426.667zM426.667 298.667v298.667c0 17.493 20.053 27.733 34.133 17.067l199.253-149.333c11.52-8.533 11.52-25.6 0-34.133l-199.253-149.333c-14.080-10.667-34.133-0.427-34.133 17.067z" />
<glyph unicode="&#xe91c;" glyph-name="fullscreen-exit" d="M256 277.333h85.333v-85.333c0-23.467 19.2-42.667 42.667-42.667s42.667 19.2 42.667 42.667v128c0 23.467-19.2 42.667-42.667 42.667h-128c-23.467 0-42.667-19.2-42.667-42.667s19.2-42.667 42.667-42.667zM341.333 618.667h-85.333c-23.467 0-42.667-19.2-42.667-42.667s19.2-42.667 42.667-42.667h128c23.467 0 42.667 19.2 42.667 42.667v128c0 23.467-19.2 42.667-42.667 42.667s-42.667-19.2-42.667-42.667v-85.333zM640 149.333c23.467 0 42.667 19.2 42.667 42.667v85.333h85.333c23.467 0 42.667 19.2 42.667 42.667s-19.2 42.667-42.667 42.667h-128c-23.467 0-42.667-19.2-42.667-42.667v-128c0-23.467 19.2-42.667 42.667-42.667zM682.667 618.667v85.333c0 23.467-19.2 42.667-42.667 42.667s-42.667-19.2-42.667-42.667v-128c0-23.467 19.2-42.667 42.667-42.667h128c23.467 0 42.667 19.2 42.667 42.667s-19.2 42.667-42.667 42.667h-85.333z" />
<glyph unicode="&#xe91d;" glyph-name="pause-circle-outline" d="M426.667 277.333c23.467 0 42.667 19.2 42.667 42.667v256c0 23.467-19.2 42.667-42.667 42.667s-42.667-19.2-42.667-42.667v-256c0-23.467 19.2-42.667 42.667-42.667zM512 874.667c-235.52 0-426.667-191.147-426.667-426.667s191.147-426.667 426.667-426.667 426.667 191.147 426.667 426.667-191.147 426.667-426.667 426.667zM512 106.667c-188.16 0-341.333 153.173-341.333 341.333s153.173 341.333 341.333 341.333 341.333-153.173 341.333-341.333-153.173-341.333-341.333-341.333zM597.333 277.333c23.467 0 42.667 19.2 42.667 42.667v256c0 23.467-19.2 42.667-42.667 42.667s-42.667-19.2-42.667-42.667v-256c0-23.467 19.2-42.667 42.667-42.667z" />
<glyph unicode="&#xe91e;" glyph-name="history" d="M511.573 874.667c-235.52 0-426.24-191.147-426.24-426.667s190.72-426.667 426.24-426.667c235.947 0 427.093 191.147 427.093 426.667s-191.147 426.667-427.093 426.667zM512 106.667c-188.587 0-341.333 152.747-341.333 341.333s152.747 341.333 341.333 341.333 341.333-152.747 341.333-341.333-152.747-341.333-341.333-341.333zM502.613 661.333h-2.56c-17.067 0-30.72-13.653-30.72-30.72v-201.387c0-14.933 7.68-29.013 20.907-36.693l177.067-106.24c14.507-8.533 33.28-4.267 41.813 10.24 8.96 14.507 4.267 33.707-10.667 42.24l-165.12 98.133v193.707c0 17.067-13.653 30.72-30.72 30.72z" />
<glyph unicode="&#xe91f;" glyph-name="list-download" d="M810.667 405.333v-213.333c0-23.467-19.2-42.667-42.667-42.667h-512c-23.467 0-42.667 19.2-42.667 42.667v213.333c0 23.467-19.2 42.667-42.667 42.667s-42.667-19.2-42.667-42.667v-256c0-46.933 38.4-85.333 85.333-85.333h597.333c46.933 0 85.333 38.4 85.333 85.333v256c0 23.467-19.2 42.667-42.667 42.667s-42.667-19.2-42.667-42.667zM554.667 419.413l80.213 80.213c16.64 16.64 43.52 16.64 60.16 0s16.64-43.52 0-60.16l-153.173-153.173c-16.64-16.64-43.52-16.64-60.16 0l-153.173 153.173c-16.64 16.64-16.64 43.52 0 60.16s43.52 16.64 60.16 0l80.64-80.213v369.92c0 23.467 19.2 42.667 42.667 42.667s42.667-19.2 42.667-42.667v-369.92z" />
<glyph unicode="&#xe920;" glyph-name="mail-outline" d="M853.333 789.333h-682.667c-46.933 0-84.907-38.4-84.907-85.333l-0.427-512c0-46.933 38.4-85.333 85.333-85.333h682.667c46.933 0 85.333 38.4 85.333 85.333v512c0 46.933-38.4 85.333-85.333 85.333zM810.667 192h-597.333c-23.467 0-42.667 19.2-42.667 42.667v384l296.107-185.173c27.733-17.493 62.72-17.493 90.453 0l296.107 185.173v-384c0-23.467-19.2-42.667-42.667-42.667zM512 490.667l-341.333 213.333h682.667l-341.333-213.333z" />
<glyph unicode="&#xe921;" glyph-name="more-vert" d="M512 618.667c46.933 0 85.333 38.4 85.333 85.333s-38.4 85.333-85.333 85.333-85.333-38.4-85.333-85.333 38.4-85.333 85.333-85.333zM512 533.333c-46.933 0-85.333-38.4-85.333-85.333s38.4-85.333 85.333-85.333 85.333 38.4 85.333 85.333-38.4 85.333-85.333 85.333zM512 277.333c-46.933 0-85.333-38.4-85.333-85.333s38.4-85.333 85.333-85.333 85.333 38.4 85.333 85.333-38.4 85.333-85.333 85.333z" />
<glyph unicode="&#xe922;" glyph-name="headset" d="M486.4 916.48c-203.947-13.227-358.4-192-358.4-396.373v-285.44c0-70.827 57.173-128 128-128h42.667c46.933 0 85.333 38.4 85.333 85.333v170.667c0 46.933-38.4 85.333-85.333 85.333h-85.333v72.96c0 163.84 126.293 306.347 289.707 311.040 169.387 4.693 307.627-130.56 307.627-298.667v-85.333h-85.333c-46.933 0-85.333-38.4-85.333-85.333v-170.667c0-46.933 38.4-85.333 85.333-85.333h42.667c70.827 0 128 57.173 128 128v298.667c0 220.587-186.027 397.653-409.6 383.147z" />
<glyph unicode="&#xe923;" glyph-name="menu" d="M170.667 192h682.667c23.467 0 42.667 19.2 42.667 42.667s-19.2 42.667-42.667 42.667h-682.667c-23.467 0-42.667-19.2-42.667-42.667s19.2-42.667 42.667-42.667zM170.667 405.333h682.667c23.467 0 42.667 19.2 42.667 42.667s-19.2 42.667-42.667 42.667h-682.667c-23.467 0-42.667-19.2-42.667-42.667s19.2-42.667 42.667-42.667zM128 661.333c0-23.467 19.2-42.667 42.667-42.667h682.667c23.467 0 42.667 19.2 42.667 42.667s-19.2 42.667-42.667 42.667h-682.667c-23.467 0-42.667-19.2-42.667-42.667z" />
<glyph unicode="&#xe924;" glyph-name="east" d="M609.707 716.373v0c-16.64-16.64-16.64-43.52 0-60.16l165.547-165.547h-647.253c-23.467 0-42.667-19.2-42.667-42.667v0c0-23.467 19.2-42.667 42.667-42.667h647.68l-165.547-165.547c-16.64-16.64-16.64-43.52 0-60.16v0c16.64-16.64 43.52-16.64 60.16 0l238.507 238.507c16.64 16.64 16.64 43.52 0 60.16l-238.933 238.080c-16.213 16.64-43.52 16.64-60.16 0z" />
<glyph unicode="&#xe925;" glyph-name="pause" d="M256 149.333h170.667v597.333h-170.667v-597.333zM597.333 746.667v-597.333h170.667v597.333h-170.667z" />
<glyph unicode="&#xe926;" glyph-name="navigate-before" d="M636.16 673.707c-16.64 16.64-43.52 16.64-60.16 0l-195.84-195.84c-16.64-16.64-16.64-43.52 0-60.16l195.84-195.84c16.64-16.64 43.52-16.64 60.16 0s16.64 43.52 0 60.16l-165.547 165.973 165.547 165.547c16.213 16.64 16.213 43.947 0 60.16z" />
<glyph unicode="&#xe927;" glyph-name="left-arrow" d="M669.099 698.325c3.555-3.578 5.752-8.508 5.752-13.952s-2.197-10.374-5.753-13.953l-240.084-240.212 240.085-240.043c3.576-3.576 5.788-8.516 5.788-13.973 0-10.914-8.847-19.761-19.761-19.761-5.457 0-10.397 2.212-13.973 5.788l-251.349 251.349c-3.587 3.571-5.808 8.512-5.808 13.972 0 0.926 0.064 1.836 0.187 2.728l-0.012-0.103c-0.118 0.813-0.186 1.752-0.186 2.707 0 5.455 2.207 10.395 5.776 13.976l251.391 251.476c3.575 3.578 8.516 5.791 13.973 5.791s10.398-2.213 13.973-5.791v0z" />
<glyph unicode="&#xe928;" glyph-name="right-arrow" d="M389.803 162.133c-3.555 3.578-5.752 8.508-5.752 13.952s2.197 10.374 5.753 13.953l240.084 240.212-240.085 240.043c-3.576 3.576-5.788 8.516-5.788 13.973 0 10.914 8.847 19.761 19.761 19.761 5.457 0 10.397-2.212 13.973-5.788l251.349-251.349c3.587-3.571 5.808-8.512 5.808-13.972 0-0.926-0.064-1.836-0.187-2.728l0.012 0.103c0.118-0.813 0.186-1.752 0.186-2.707 0-5.455-2.207-10.395-5.776-13.976l-251.391-251.476c-3.575-3.578-8.516-5.791-13.973-5.791s-10.398 2.213-13.973 5.791v0z" />
<glyph unicode="&#xe929;" glyph-name="font-add" d="M362.667 170.752v490.667h-192v85.333h468.992v-85.333h-191.488v-490.667zM682.667 277.419v106.667h-106.667v85.333h106.667v106.667h85.333v-106.667h106.667v-85.333h-106.667v-106.667z" />
<glyph unicode="&#xe92a;" glyph-name="font-cut" d="M362.667 170.667v448h-192v85.333h469.333v-85.333h-191.659v-448zM576 341.333v85.333h256v-85.333z" />
<glyph unicode="&#xe92b;" glyph-name="font-setting" d="M106.667 725.333c0-35.413 28.587-64 64-64h149.333v-448c0-35.413 28.587-64 64-64s64 28.587 64 64v448h149.333c35.413 0 64 28.587 64 64s-28.587 64-64 64h-426.667c-35.413 0-64-28.587-64-64zM853.333 576h-256c-35.413 0-64-28.587-64-64s28.587-64 64-64h64v-234.667c0-35.413 28.587-64 64-64s64 28.587 64 64v234.667h64c35.413 0 64 28.587 64 64s-28.587 64-64 64z" />
<glyph unicode="&#xe92c;" glyph-name="palette" d="M512 832c-212.053 0-384-171.947-384-384s171.947-384 384-384c35.413 0 64 28.587 64 64 0 16.64-6.4 31.573-16.64 43.093-9.813 11.093-16.213 26.027-16.213 42.24 0 35.413 28.587 64 64 64h75.52c117.76 0 213.333 95.573 213.333 213.333 0 188.587-171.947 341.333-384 341.333zM277.333 448c-35.413 0-64 28.587-64 64s28.587 64 64 64 64-28.587 64-64-28.587-64-64-64zM405.333 618.667c-35.413 0-64 28.587-64 64s28.587 64 64 64 64-28.587 64-64-28.587-64-64-64zM618.667 618.667c-35.413 0-64 28.587-64 64s28.587 64 64 64 64-28.587 64-64-28.587-64-64-64zM746.667 448c-35.413 0-64 28.587-64 64s28.587 64 64 64 64-28.587 64-64-28.587-64-64-64z" />
<glyph unicode="&#xe92d;" glyph-name="navigate-next" d="M397.227 673.707c-16.64-16.64-16.64-43.52 0-60.16l165.547-165.547-165.547-165.547c-16.64-16.64-16.64-43.52 0-60.16s43.52-16.64 60.16 0l195.84 195.84c16.64 16.64 16.64 43.52 0 60.16l-195.84 195.84c-16.213 16.213-43.52 16.213-60.16-0.427z" />
<glyph unicode="&#xe92e;" glyph-name="repeat" d="M298.667 661.333h426.667v-76.373c0-19.2 23.040-28.587 36.267-14.933l119.040 119.040c8.533 8.533 8.533 21.76 0 30.293l-119.040 119.040c-13.227 13.227-36.267 3.84-36.267-15.36v-76.373h-469.333c-23.467 0-42.667-19.2-42.667-42.667v-170.667c0-23.467 19.2-42.667 42.667-42.667s42.667 19.2 42.667 42.667v128zM725.333 234.667h-426.667v76.373c0 19.2-23.040 28.587-36.267 14.933l-119.040-119.040c-8.533-8.533-8.533-21.76 0-30.293l119.040-119.040c13.227-13.227 36.267-3.84 36.267 15.36v76.373h469.333c23.467 0 42.667 19.2 42.667 42.667v170.667c0 23.467-19.2 42.667-42.667 42.667s-42.667-19.2-42.667-42.667v-128z" />
<glyph unicode="&#xe92f;" glyph-name="repeat-one" d="M298.667 661.333h426.667v-76.373c0-19.2 23.040-28.587 36.267-14.933l119.040 119.040c8.533 8.533 8.533 21.76 0 30.293l-119.040 119.040c-13.227 13.227-36.267 3.84-36.267-15.36v-76.373h-469.333c-23.467 0-42.667-19.2-42.667-42.667v-170.667c0-23.467 19.2-42.667 42.667-42.667s42.667 19.2 42.667 42.667v128zM725.333 234.667h-426.667v76.373c0 19.2-23.040 28.587-36.267 14.933l-119.040-119.040c-8.533-8.533-8.533-21.76 0-30.293l119.040-119.040c13.227-13.227 36.267-3.84 36.267 15.36v76.373h469.333c23.467 0 42.667 19.2 42.667 42.667v170.667c0 23.467-19.2 42.667-42.667 42.667s-42.667-19.2-42.667-42.667v-128zM554.667 352v189.44c0 19.2-15.36 34.56-34.56 34.56-5.547 0-10.667-1.28-15.36-3.84l-63.573-31.573c-8.96-4.267-14.507-13.653-14.507-23.467 0-14.507 11.947-26.453 26.453-26.453h37.547v-138.667c0-17.493 14.507-32 32-32s32 14.507 32 32z" />
<glyph unicode="&#xe930;" glyph-name="skip-next" d="M323.413 239.36l246.187 173.653c23.893 17.067 23.893 52.907 0 69.547l-246.187 174.080c-28.587 19.627-67.413-0.427-67.413-34.987v-347.307c0-34.56 38.827-54.613 67.413-34.987zM682.667 661.333v-426.667c0-23.467 19.2-42.667 42.667-42.667s42.667 19.2 42.667 42.667v426.667c0 23.467-19.2 42.667-42.667 42.667s-42.667-19.2-42.667-42.667z" />
<glyph unicode="&#xe931;" glyph-name="skip-previous" d="M298.667 704c23.467 0 42.667-19.2 42.667-42.667v-426.667c0-23.467-19.2-42.667-42.667-42.667s-42.667 19.2-42.667 42.667v426.667c0 23.467 19.2 42.667 42.667 42.667zM454.827 413.013l246.187-173.653c28.16-20.053 67.413 0.427 67.413 34.987v347.307c0 34.56-38.827 54.613-67.413 34.987l-246.187-173.653c-24.32-17.067-24.32-52.907 0-69.973z" />
<glyph unicode="&#xe932;" glyph-name="shuffle" d="M451.84 568.747l-190.72 190.72c-16.64 16.64-43.52 16.64-60.16 0s-16.64-43.52 0-60.16l190.293-190.293 60.587 59.733zM654.933 753.067l50.773-50.773-505.173-505.173c-16.64-16.64-16.64-43.52 0-60.16s43.52-16.64 60.16 0l505.6 504.747 50.773-50.773c13.227-13.227 36.267-3.84 36.267 15.36v161.707c0 11.947-9.387 21.333-21.333 21.333h-161.707c-19.2 0-28.587-23.040-15.36-36.267zM632.747 387.84l-60.16-60.16 133.547-133.547-51.2-51.2c-13.227-13.227-3.84-36.267 15.36-36.267h161.707c11.947 0 21.333 9.387 21.333 21.333v161.707c0 19.2-23.040 28.587-36.267 14.933l-50.773-50.773-133.547 133.973z" />
<glyph unicode="&#xe933;" glyph-name="search" d="M661.333 362.667h-33.707l-11.947 11.52c51.2 59.733 77.653 141.227 63.147 227.84-20.053 118.613-119.040 213.333-238.507 227.84-180.48 22.187-332.373-129.707-310.187-310.187 14.507-119.467 109.227-218.453 227.84-238.507 86.613-14.507 168.107 11.947 227.84 63.147l11.52-11.947v-33.707l181.333-181.333c17.493-17.493 46.080-17.493 63.573 0s17.493 46.080 0 63.573l-180.907 181.76zM405.333 362.667c-106.24 0-192 85.76-192 192s85.76 192 192 192 192-85.76 192-192-85.76-192-192-192z" />
<glyph unicode="&#xe934;" glyph-name="videocam" d="M725.333 512v149.333c0 23.467-19.2 42.667-42.667 42.667h-512c-23.467 0-42.667-19.2-42.667-42.667v-426.667c0-23.467 19.2-42.667 42.667-42.667h512c23.467 0 42.667 19.2 42.667 42.667v149.333l97.707-97.707c26.88-26.88 72.96-7.68 72.96 30.293v263.253c0 37.973-46.080 57.173-72.96 30.293l-97.707-98.133z" />
<glyph unicode="&#xe935;" glyph-name="movie" d="M853.333 106.667h-682.667c-47.533 1.816-85.379 40.789-85.379 88.601 0 0.997 0.016 1.989 0.049 2.978l-0.004-0.144 0.469 457.131c-0.034 0.911-0.053 1.982-0.053 3.057 0 47.607 37.612 86.429 84.741 88.372l0.176 0.006h682.667c47.533-1.816 85.379-40.789 85.379-88.601 0-0.997-0.016-1.989-0.049-2.978l0.004 0.144v-457.131c0.029-0.845 0.045-1.837 0.045-2.834 0-47.812-37.845-86.784-85.214-88.596l-0.165-0.005zM428.459 558.933c-0.026 0-0.056 0-0.086 0-12.626 0-22.876-10.175-22.996-22.773v-235.958c0.073-12.646 10.341-22.869 22.997-22.869 0.030 0 0.060 0 0.090 0h-0.005c4.628 0.019 8.934 1.384 12.55 3.725l-0.091-0.055 188.331 118.016c6.479 4.003 10.736 11.060 10.752 19.112v0.002c0 0.024 0 0.052 0 0.080 0 8.147-4.252 15.301-10.659 19.364l-0.094 0.055-188.288 117.589c-3.534 2.303-7.854 3.683-12.494 3.712h-0.008z" />
<glyph unicode="&#xe936;" glyph-name="line-movie" d="M819.2 149.333h-614.4c-42.986 2.503-76.897 37.973-76.897 81.364 0 1.396 0.035 2.784 0.105 4.164l-0.008-0.194 0.384 426.667c-0.068 1.24-0.106 2.692-0.106 4.152 0 43.224 33.723 78.572 76.294 81.17l0.228 0.011h614.4c42.986-2.503 76.897-37.973 76.897-81.364 0-1.396-0.035-2.784-0.105-4.164l0.008 0.194v-426.667c0.062-1.185 0.097-2.573 0.097-3.97 0-43.391-33.911-78.861-76.677-81.353l-0.22-0.010zM213.333 661.333v-426.667h597.333v426.667zM426.667 555.264v-214.528c0.126-11.497 9.476-20.769 20.991-20.769 4.234 0 8.176 1.254 11.473 3.41l-0.080-0.049 171.179 107.264c5.892 3.685 9.753 10.139 9.753 17.493s-3.861 13.808-9.666 17.443l-0.086 0.050-171.179 107.093c-3.217 2.107-7.159 3.361-11.393 3.361-11.515 0-20.865-9.272-20.991-20.757v-0.012z" />
<glyph unicode="&#xe937;" glyph-name="volume-mute" d="M298.667 533.333v-170.667c0-23.467 19.2-42.667 42.667-42.667h128l140.373-140.373c26.88-26.88 72.96-7.68 72.96 30.293v476.587c0 37.973-46.080 57.173-72.96 30.293l-140.373-140.8h-128c-23.467 0-42.667-19.2-42.667-42.667z" />
<glyph unicode="&#xe93c;" glyph-name="tag" d="M913.493 465.92l-384 384c-15.36 15.36-36.693 24.747-60.16 24.747h-298.667c-46.933 0-85.333-38.4-85.333-85.333v-298.667c0-23.467 9.387-44.8 25.173-60.587l384-384c15.36-15.36 36.693-24.747 60.16-24.747s44.8 9.387 60.16 25.173l298.667 298.667c15.787 15.36 25.173 36.693 25.173 60.16s-9.813 45.227-25.173 60.587zM234.667 661.333c-35.413 0-64 28.587-64 64s28.587 64 64 64 64-28.587 64-64-28.587-64-64-64z" />
<glyph unicode="&#xe93d;" horiz-adv-x="1260" d="M1196.126-3.42l-26.562 100.18c56.337 61.636 90.849 144.048 90.849 234.521 0 192.263-155.86 348.123-348.123 348.123s-348.123-155.86-348.123-348.123c0-187.88 148.834-340.997 335.031-347.882l0.627-0.018c0.431-0.172 0.93-0.288 1.451-0.325l0.016-0.001 263.506-21.348c1.649-0.406 3.545-0.643 5.494-0.652h0.006c14.94 1.743 26.426 14.326 26.426 29.591 0 2.1-0.217 4.15-0.631 6.127l0.034-0.194z" />
<glyph unicode="&#xe93e;" horiz-adv-x="1260" d="M92.765-13.36l38.336 142.834c-81.242 87.347-131.101 204.841-131.101 333.98 0 0.088 0 0.176 0 0.264v-0.013c1.819 274.49 224.757 496.305 499.503 496.305 1.121 0 2.241-0.004 3.36-0.011l-0.172 0.001c0.935 0.006 2.041 0.010 3.147 0.010 274.745 0 497.683-221.815 499.502-496.132l0.001-0.173c-1.722-269.323-216.441-487.934-484.069-495.911l-0.738-0.017c-0.624-0.241-1.345-0.401-2.098-0.447l-0.021-0.001-380.471-30.433c-2.394-0.57-5.143-0.897-7.968-0.897-0.063 0-0.126 0-0.189 0h0.010c-21.394 2.432-37.863 20.43-37.863 42.275 0 2.96 0.302 5.85 0.878 8.639l-0.047-0.275z" />
<glyph unicode="&#xe93f;" horiz-adv-x="1260" d="M762.666 373.227c-75.683-142.49-252.547-196.648-395.037-120.966-0.013 0.007-0.025 0.013-0.038 0.020l0.002-0.001-0.971 0.516s0 0-0.18 0.096l-0.54 0.287s0 0 0 0l-0.36 0.191s0 0-0.18 0.096l-0.252 0.134s0 0 0 0l-0.252 0.134s0 0 0 0v0s0 0-0.18 0.096l-0.432 0.229s0 0 0 0v0s0 0 0 0v0s0 0-0.216 0.115v0s0 0 0 0v0s0 0 0 0v0s0 0 0 0v0s0 0 0 0v0s0 0-0.18 0.096v0s0 0 0 0l-0.18 0.096s0 0 0 0v0s0 0 0 0v0l-0.18 0.096s0 0 0 0v0s0 0 0 0v0s0 0 0 0v0s0 0-0.18 0.096v0s0 0 0 0v0l-0.216 0.115s0 0 0 0v0s0 0 0 0v0s-0.252 0.134-0.396 0.21v0l-0.54 0.287s-0.252 0.134-0.396 0.21v0s0 0 0 0v0s0 0 0 0v0s0 0 0 0v0s-0.252 0.134-0.396 0.21v0s0 0 0 0v0 0 0s0 0 0 0v0 0 0l-5.54 2.942s0 0 0 0l-0.252 0.134s0 0 0 0 0 0 0 0v0l-1.151 0.611s0 0 0 0v0l-0.18 0.096s0 0 0 0 0 0 0 0 0 0 0 0l-0.396 0.21s0 0 0 0l-0.252 0.134s0 0 0 0v0l-23.922 12.706-1.092 0.81c-37.377 28.024-65.695 62.444-85.301 100.939l0.028-0.024-0.382 0.757-0.418 0.776-0.277 0.608-0.313 0.627-2.388 5.143c-4.97 11.16-4.936 24.29 1.182 35.808 10.555 19.872 35.221 27.426 55.094 16.87 8.354-4.437 14.53-11.367 18.1-19.387l-0.047 0.102c18.008-40.739 49.707-76.399 92.632-99.199 0.23-0.122 0.46-0.244 0.691-0.365l-0.035 0.019c102.243-51.019 226.805-11.547 280.59 89.714 1.079 2.031 2.121 4.072 3.127 6.122l-0.149-0.298c10.553 19.868 35.213 27.419 55.080 16.866s27.419-35.213 16.866-55.080v0z" />
</font>
</defs>
</svg>
